<svg xmlns="http://www.w3.org/2000/svg" id="logo-myclub-orange" width="250" height="250" viewBox="0 0 250 250">
    <defs>
        <clipPath id="clip-path">
            <path id="Rectangle_3516" d="M0 0H250V250H0z" class="cls-1"/>
        </clipPath>
        <clipPath id="clip-path-2">
            <path id="Path_6410" d="M106.8 174.336l-64.88-27.678v-19.022l64.88 25.756z" class="cls-1" transform="translate(-41.925 -127.636)"/>
        </clipPath>
        <clipPath id="clip-path-3">
            <path id="Path_6411" d="M152.047 127.636v19.022l-64.878 27.678v-20.944z" class="cls-1" transform="translate(-87.169 -127.636)"/>
        </clipPath>
        <clipPath id="clip-path-4">
            <path id="Path_6412" d="M106.553 191.538l-53.914-21.945-9.153-151.457 17.267 3.132 17.268-3.132V35.53l-16.547 3 27.695 5.07V26.169l17.39 3.158v18.5z" class="cls-1" transform="translate(-43.486 -18.136)"/>
        </clipPath>
        <clipPath id="clip-path-5">
            <path id="Path_6414" d="M104.866 26.169V43.6l27.593-5.048-16.633-3.02V18.136l17.354 3.146 17.359-3.146-9.156 151.457-53.917 21.945V29.327z" class="cls-1" transform="translate(-87.466 -18.136)"/>
        </clipPath>
        <clipPath id="clip-path-7">
            <path id="Rectangle_3514" d="M0 0H111.435V15.844H0z" class="cls-1"/>
        </clipPath>
        <linearGradient id="linear-gradient" x1="-.927" x2="-.905" y1="1.434" y2="1.434" gradientUnits="objectBoundingBox">
            <stop offset="0" stop-color="#545454"/>
            <stop offset=".165" stop-color="#666"/>
            <stop offset=".362" stop-color="#757575"/>
            <stop offset=".602" stop-color="#7d7d7d"/>
            <stop offset="1" stop-color="gray"/>
        </linearGradient>
        <linearGradient id="linear-gradient-2" x1="-1.927" x2="-1.905" y1="1.434" y2="1.434" gradientUnits="objectBoundingBox">
            <stop offset="0" stop-color="#da8d1b"/>
            <stop offset=".378" stop-color="#d78b1a"/>
            <stop offset=".605" stop-color="#cf8519"/>
            <stop offset=".792" stop-color="#c07c18"/>
            <stop offset=".957" stop-color="#ac6f15"/>
            <stop offset="1" stop-color="#a66b15"/>
        </linearGradient>
        <linearGradient id="linear-gradient-3" x1="-.989" x2="-.966" y1="1.292" y2="1.292" gradientUnits="objectBoundingBox">
            <stop offset="0" stop-color="#545454"/>
            <stop offset=".055" stop-color="#5c5c5c"/>
            <stop offset=".335" stop-color="#818181"/>
            <stop offset=".595" stop-color="#9c9c9c"/>
            <stop offset=".825" stop-color="#adadad"/>
            <stop offset="1" stop-color="#b3b3b3"/>
        </linearGradient>
        <linearGradient id="linear-gradient-4" x1="-1.989" x2="-1.966" y1="1.292" y2="1.292" gradientUnits="objectBoundingBox">
            <stop offset="0" stop-color="#a66b15"/>
            <stop offset=".015" stop-color="#a86c15"/>
            <stop offset=".307" stop-color="#cd8419"/>
            <stop offset=".578" stop-color="#e8951c"/>
            <stop offset=".817" stop-color="#f9a01e"/>
            <stop offset="1" stop-color="#ffa41f"/>
        </linearGradient>
        <style>
            .cls-1{fill:none}.cls-2{clip-path:url(#clip-path)}.cls-17{fill:#fff}
        </style>
    </defs>
    <g id="Group_4103" class="cls-2">
        <g id="Group_4091" transform="translate(60.12 183.03)">
            <g id="Group_4090" clip-path="url(#clip-path-2)">
                <path id="Rectangle_3510" fill="url(#linear-gradient)" d="M0 0H64.88V46.7H0z"/>
            </g>
        </g>
        <g id="Group_4093" transform="translate(125 183.03)">
            <g id="Group_4092" clip-path="url(#clip-path-3)">
                <path id="Rectangle_3511" fill="url(#linear-gradient-2)" d="M0 0H64.878V46.7H0z"/>
            </g>
        </g>
        <g id="Group_4095" transform="translate(62.359 26.007)">
            <g id="Group_4094" clip-path="url(#clip-path-4)">
                <path id="Rectangle_3512" fill="url(#linear-gradient-3)" d="M0 0H63.073V173.402H0z"/>
            </g>
        </g>
        <path id="Path_6413" fill="#bbbdbf" d="M47.876 90.786l-4.391-72.65 17.268 3.132 17.268-3.132V35.53l-16.548 3 27.695 5.07V26.169l17.39 3.159v18.5z" transform="translate(18.872 7.871)"/>
        <g id="Group_4097" transform="translate(125.426 26.007)">
            <g id="Group_4096" clip-path="url(#clip-path-5)">
                <path id="Rectangle_3513" fill="url(#linear-gradient-4)" d="M0 0H63.073V173.402H0z"/>
            </g>
        </g>
        <path id="Path_6415" fill="#ffb142" d="M104.866 26.17V43.6l27.593-5.046-16.633-3.024V18.135l17.354 3.148 17.359-3.148-3.513 58.087-59.56-28.393v-18.5z" transform="translate(37.96 7.871)"/>
        <g id="Group_4102">
            <g id="Group_4101" class="cls-2">
                <path id="Path_6416" fill="#545454" d="M205.286 71.85c8.35-10.828 10.388-33.452 7.311-30.927-6.308 5.147-16.461 9.226-28.724 11.488 8.737 3.651 14.426 8.052 15.952 12.833a5.176 5.176 0 0 1-.063 1.542c-4.417 14.26-39.419 25.376-81.961 25.376-42.207 0-76.98-10.936-81.851-25.03a6.927 6.927 0 0 1 .057-2.542c1.8-4.468 7.245-8.58 15.4-12.036-12.625-2.234-23.077-6.372-29.52-11.631-3.085-2.525-1.045 20.1 7.3 30.927-8.347 6.16-11.968 13.834-11.207 14.835 3.932 5.122 11.136 9.966 20.68 13.515l.66 7.237c0 15.7 32.935 32.817 78.478 32.817s78.477-17.118 78.477-32.817l.7-7.7c8.961-3.5 15.75-8.144 19.517-13.057.767-1-2.858-8.674-11.208-14.835" transform="translate(7.761 17.676)"/>
                <g id="Group_4100" opacity="0.3" transform="translate(69.283 147.406)">
                    <g id="Group_4099">
                        <g id="Group_4098" clip-path="url(#clip-path-7)">
                            <path id="Path_6417" fill="#231f20" d="M104.582 113.318c-22.763 0-42.346-4.283-56.267-10.524l.206 3.429c13.61 6.806 33.194 12.416 56.061 12.416 22.26 0 41.4-5.382 54.961-11.921l.208-3.437c-13.848 5.975-33 10.038-55.169 10.038" transform="translate(-48.314 -102.794)"/>
                        </g>
                    </g>
                </g>
                <path id="Path_6418" d="M40.433 80.25q1.809.721 3.628 1.392c0 .789 0 1.573.007 2.36.027.016.053.032.08.044.665-1.451 2.178-1.737 4.547-.929 2.766.938 4.352 2.365 4.732 4.384l.063.021c.648-1.7 2.2-2.161 4.663-1.466 3.592 1 5.458 3.229 5.562 6.844q.153 5.139.3 10.27-1.846-.46-3.687-.958-.155-4.73-.305-9.464c-.072-2.2-1.011-3.532-2.809-4.047-2.253-.654-3.328.221-3.238 2.686l.331 9.081q-1.828-.564-3.644-1.167l-.374-9.628a5.469 5.469 0 0 0-.6-2.713 4.2 4.2 0 0 0-2.157-1.339c-2.241-.787-3.3.047-3.194 2.568l.387 9.026q-1.8-.669-3.589-1.378l-.703-15.587" class="cls-17" transform="translate(17.548 34.828)"/>
                <path id="Path_6419" d="M73.392 88.686q-1.932 7.92-3.812 15.8-.8 3.351-2.041 4.329c-.833.65-2.184.8-4.048.416-.423-.083-.858-.2-1.312-.336l-.07-2.739c.324.087.594.158.81.2 1.577.33 2.545-.855 2.905-3.518-.637-.12-1.271-.244-1.9-.374q-2.734-8.256-5.512-16.6 2.011.471 4.032.889 1.069 3.487 2.129 6.962c.354 1.159.706 2.323 1.06 3.479.059.229.224.8.493 1.739l.513 1.724.082.014c.1-.523.205-1.048.305-1.57.155-.813.258-1.339.307-1.589l.7-3.153q.686-3.143 1.378-6.3 1.99.336 3.985.624" class="cls-17" transform="translate(25.349 37.264)"/>
                <path id="Path_6420" d="M85.037 98.742q2.155.112 4.313.171v.761q.015 4.605-1.7 5.9c-1.14.852-3.67 1.215-7.577.9-4.435-.359-7.164-1.43-8.205-2.976s-1.613-5.432-1.716-11.623c-.06-3.648.6-5.947 1.976-6.92s4.3-1.193 8.779-.858c3.257.241 5.438.794 6.536 1.781s1.651 2.868 1.661 5.671c.006.169.011.337.019.5q-2.168-.062-4.334-.175v-.566c-.011-1.443-.3-2.383-.863-2.818s-1.848-.713-3.852-.869c-2.68-.214-4.285-.077-4.814.508s-.771 2.434-.73 5.573q.086 6.343.819 7.583c.489.825 2.039 1.385 4.658 1.6 2.125.168 3.5.03 4.136-.364s.942-1.329.932-2.795c-.011-.328-.026-.657-.039-.985" class="cls-17" transform="translate(30.446 36.434)"/>
                <path id="Path_6421" d="M89.765 84.527q-.017 11.03-.032 22.063-1.893.021-3.781.007-.013-11.03-.024-22.063 1.919.019 3.837-.007" class="cls-17" transform="translate(37.292 36.684)"/>
                <path id="Path_6422" d="M105.981 88.3l-.222 15.467q-1.88.215-3.764.4l.247-2.674-.067-.01c-.759 1.966-2.459 3.082-5.1 3.261-3.574.232-5.353-1.48-5.339-4.975q.026-5.19.049-10.381 1.91-.071 3.819-.181l-.069 9.49a3.938 3.938 0 0 0 .543 2.561 2.968 2.968 0 0 0 2.325.463c2.419-.182 3.645-1.732 3.68-4.573l.1-8.446c1.268-.12 2.537-.251 3.8-.4" class="cls-17" transform="translate(39.811 38.323)"/>
                <path id="Path_6423" d="M104.754 105.53q.191-11.045.386-22.089 1.906-.271 3.8-.584-.086 4.42-.176 8.842c.029 0 .053.011.08.014.683-1.734 2.346-2.818 4.982-3.325 2.261-.437 3.79-.231 4.6.671s1.169 2.819 1.088 5.757q-.133 4.818-1.438 6.794c-.869 1.311-2.492 2.23-4.88 2.687-2.421.463-4-.153-4.726-1.772-.029 0-.054.01-.082.013l.113 2.416q-1.871.308-3.747.575m7.725-13.966c-2.446.45-3.7 2.134-3.763 5.128q-.071 3.51.533 4.4c.4.6 1.331.773 2.791.5a4.255 4.255 0 0 0 2.943-1.48 9.689 9.689 0 0 0 .741-4.319c.047-2.029-.128-3.31-.533-3.842s-1.309-.655-2.712-.393" class="cls-17" transform="translate(45.463 35.96)"/>
                <path id="Path_6424" d="M121.329 92.711c-.046 1.331-.087 2.66-.133 3.991q-1.839.505-3.685.968.062-1.994.119-3.989 1.852-.467 3.7-.969" class="cls-17" transform="translate(50.999 40.236)"/>
                <path id="Path_6425" d="M124.1 101.99l.456-12.7q-1.086.327-2.177.647c.033-.945.063-1.887.1-2.829.726-.214 1.454-.43 2.18-.648l.059-1.659a7.106 7.106 0 0 1 1.417-4.477 10.574 10.574 0 0 1 4.63-2.631c.376-.128.895-.291 1.557-.495l-.119 2.914a5.963 5.963 0 0 0-1.275.272 3.339 3.339 0 0 0-2.521 3.248c-.023.554-.042 1.107-.063 1.661q1.91-.626 3.81-1.3-.056 1.42-.116 2.835-1.9.669-3.8 1.3-.243 6.356-.489 12.714-1.818.6-3.645 1.154" class="cls-17" transform="translate(53.113 33.501)"/>
                <path id="Path_6426" d="M135.3 75.6c-.046 1.038-.09 2.075-.139 3.113q-1.813.716-3.638 1.392.069-1.551.133-3.109c1.22-.45 2.432-.918 3.644-1.4m-.3 6.665q-.359 7.8-.708 15.589-1.787.708-3.586 1.378l.664-15.575q1.822-.675 3.631-1.392" class="cls-17" transform="translate(56.724 32.811)"/>
            </g>
        </g>
    </g>
</svg>
